<?xml version="1.0" encoding="utf-8"?>
<!-- Svg Vector Icons : http://www.sfont.cn -->
<!DOCTYPE svg PUBLIC "-//W3C//DTD SVG 1.1//EN" "http://www.w3.org/Graphics/SVG/1.1/DTD/svg11.dtd">
<svg version="1.1" xmlns="http://www.w3.org/2000/svg" xmlns:xlink="http://www.w3.org/1999/xlink" x="0px" y="0px" viewBox="0 0 1000 1000" enable-background="new 0 0 1000 1000" xml:space="preserve">
<metadata> Svg Vector Icons : http://www.sfont.cn </metadata>
<g><path d="M24.5,94.2h346.5c8,0,14.5,6.5,14.5,14.5v346.6c0,8-6.5,14.5-14.5,14.5H24.5c-8,0-14.5-6.5-14.5-14.5V108.7C10,100.7,16.5,94.2,24.5,94.2z"/><path d="M531.4,602H878c8,0,14.5,6.5,14.5,14.5V963c0,8-6.5,14.5-14.5,14.5H531.4c-8,0-14.5-6.5-14.5-14.5V616.5C516.9,608.5,523.5,602,531.4,602z"/><path d="M475.1,271.7l245-245c5.6-5.6,14.9-5.6,20.5,0l245.1,245.1c5.6,5.6,5.6,14.9,0,20.5l-245,245c-5.6,5.6-14.9,5.6-20.5,0L475.1,292.2C469.5,286.6,469.5,277.4,475.1,271.7z"/><path d="M24.5,602h346.5c8,0,14.5,6.5,14.5,14.5V963c0,8-6.5,14.5-14.5,14.5H24.5c-8,0-14.5-6.5-14.5-14.5V616.5C10,608.5,16.5,602,24.5,602z"/></g>
</svg>